<?xml version="1.0" encoding="utf-8"?>
<!-- Generator: Adobe Illustrator 26.0.1, SVG Export Plug-In . SVG Version: 6.00 Build 0)  -->
<svg version="1.1" id="Layer_1" xmlns="http://www.w3.org/2000/svg" xmlns:xlink="http://www.w3.org/1999/xlink" x="0px" y="0px"
	 viewBox="0 0 1024 1024" style="enable-background:new 0 0 1024 1024;" xml:space="preserve">
<style type="text/css">
	.st0{fill:#BFCBBF;}
	.st1{fill:#D7DFD4;}
	.st2{fill:#6E317A;}
	.st3{fill:#592366;}
	.st4{fill:#FFFFFF;}
</style>
<path class="st0" d="M936.99,512.01c0,27.72-2.65,54.83-7.73,81.08C891.43,789.03,718.99,937,512,937S132.57,789.03,94.73,593.08
	c-5.07-26.25-7.73-53.36-7.73-81.08C87.01,277.29,277.28,87,512,87S936.99,277.29,936.99,512.01z"/>
<path class="st1" d="M936.99,512.01c0,27.72-2.65,54.83-7.73,81.08H94.73c-5.07-26.25-7.73-53.36-7.73-81.08
	C87.01,277.29,277.28,87,512,87S936.99,277.29,936.99,512.01z"/>
<g>
	<g>
		<g>
			<circle class="st2" cx="512" cy="505.88" r="294.73"/>
		</g>
		<g>
			<g>
				<g>
					<polygon class="st2" points="548.97,162.03 475.03,162.03 438.06,237.28 475.03,312.52 548.97,312.52 585.94,237.28 					"/>
					<polygon class="st2" points="548.97,699.21 475.03,699.21 438.06,774.45 475.03,849.7 548.97,849.7 585.94,774.45 					"/>
				</g>
				<g>
					<polygon class="st2" points="855.83,542.83 855.83,468.9 780.59,431.93 705.34,468.9 705.34,542.83 780.59,579.8 					"/>
					<polygon class="st2" points="318.66,542.83 318.66,468.9 243.41,431.93 168.17,468.9 168.17,542.83 243.41,579.8 					"/>
				</g>
			</g>
		</g>
		<g>
			<g>
				<g>
					<polygon class="st2" points="781.27,288.88 728.99,236.6 649.64,263.66 622.57,343.01 674.85,395.29 754.2,368.23 					"/>
					<polygon class="st2" points="401.43,668.72 349.15,616.44 269.8,643.5 242.73,722.85 295.01,775.13 374.36,748.07 					"/>
				</g>
				<g>
					<polygon class="st2" points="728.99,775.13 781.27,722.85 754.2,643.5 674.85,616.44 622.57,668.72 649.64,748.07 					"/>
					<polygon class="st2" points="349.15,395.29 401.43,343.01 374.36,263.66 295.01,236.6 242.73,288.88 269.8,368.23 					"/>
				</g>
			</g>
		</g>
	</g>
</g>
<path class="st3" d="M743.08,505.88c0,99.68-63.11,184.62-151.56,217.04c-24.79,9.08-51.57,14.04-79.51,14.04
	c-27.94,0-54.72-4.96-79.51-14.04c-88.45-32.42-151.56-117.36-151.56-217.04c0-127.62,103.46-231.08,231.08-231.08
	S743.08,378.26,743.08,505.88z"/>
<circle class="st4" cx="512" cy="505.88" r="157.42"/>
<path class="st3" d="M577.54,494.08c0,60.15-131.08,60.15-131.08,0V334.04h131.08L577.54,494.08z"/>
<path class="st4" d="M591.51,601.82v121.1c-24.79,9.08-51.57,14.04-79.51,14.04c-27.94,0-54.72-4.96-79.51-14.04v-121.1H591.51z"/>
</svg>
